<?xml version="1.0" encoding="UTF-8" standalone="no"?>
<!-- Generated by IcoMoon.io -->

<svg
   version="1.1"
   width="25.28833"
   height="25.479256"
   viewBox="0 0 25.28833 25.479256"
   id="svg13"
   xmlns="http://www.w3.org/2000/svg"
   xmlns:svg="http://www.w3.org/2000/svg">
  <defs
     id="defs17" />
  <title
     id="title9">lattes-new</title>
  <path
     d="m 5.2052211,23.281256 c -2.733,-5.6 -4.35899999,-8.982 -4.35899999,-9.066 0,-0.137 0.16699999,-0.118 1.80899999,0.204 2.888,0.567 4.431,0.727 7.003,0.728 3.4029999,10e-4 6.1739999,-0.538 8.3269999,-1.621 1.139,-0.573 1.824,-1.081 2.385,-1.769 0.691,-0.848 0.913,-1.432 0.921,-2.4149999 0.007,-0.935 -0.119,-1.428 -0.66,-2.572 -0.214,-0.452 -0.402,-0.971 -0.42,-1.153 -0.028,-0.293 -0.004,-0.335 0.212,-0.36 0.472,-0.056 2.802,2.206 3.66,3.553 1.479,2.3229999 1.599,4.8359999 0.347,7.2659999 -0.769,1.493 -1.619,2.526 -3.042,3.7 -2.365,1.95 -5.114,3.308 -8.91,4.402 -2.039,0.588 -5.3359999,1.301 -6.0149999,1.301 -0.144,0 -0.414,-0.472 -1.256,-2.199 z m 1.834,1.068 c -0.029,-0.059 -0.379,-0.778 -0.779,-1.599 -0.832,-1.709 -1.068,-2.308 -0.908,-2.308 0.06,0 0.084,-0.077 0.055,-0.171 -0.029,-0.094 -0.012,-0.192 0.039,-0.218 0.305,-0.158 -0.064,-1.158 -0.623,-1.691 -0.248,-0.237 -0.337,-0.411 -0.365,-0.717 -0.044,-0.47 -0.359,-1.381 -0.702,-2.032 -0.165,-0.313 -0.203,-0.465 -0.121,-0.488 0.065,-0.018 -0.225,-0.103 -0.646,-0.187 -0.421,-0.084 -0.822,-0.192 -0.892,-0.238 -0.07,-0.046 -0.128,-0.069 -0.128,-0.05 0,0.222 4.915,9.806 5.029,9.806 0.051,0 0.07,-0.048 0.042,-0.107 z m -1.073,-10.099 c -2.655,-0.344 -4.883,-0.643 -4.952,-0.665 -0.11799999,-0.038 -0.53999999,-1.446 -0.77799999,-2.592 -0.06,-0.29 -0.148,-1.0579999 -0.196,-1.7079999 -0.214,-2.9 0.417,-4.905 2.10799999,-6.708 2.863,-3.05 8.9929999,-3.421 15.9089999,-0.963 1.214,0.432 1.696,0.732 1.473,0.919 -0.165,0.138 -1.283,0.136 -3.215,-0.006 -3.02,-0.222 -5.319,0.198 -6.5039999,1.19 -1.804,1.51 -1.529,4.82 0.7979999,9.5949999 0.252,0.517 0.506,1.023 0.564,1.126 0.135,0.237 0.037,0.457 -0.198,0.446 -0.1,-0.005 -2.3539999,-0.29 -5.0089999,-0.634 z m 4.3399999,-0.007 c -0.034,-0.028 -0.122,-0.031 -0.196,-0.007 -0.081,0.027 -0.057,0.047 0.062,0.052 0.108,0.004 0.168,-0.016 0.134,-0.045 z m -0.5569999,-0.09 c -0.246,-0.083 -8.445,-1.2 -8.527,-1.161 -0.046,0.022 -0.058,0.061 -0.027,0.087 0.065,0.055 8.04,1.109 8.424,1.114 0.14,0.002 0.198,-0.016 0.129,-0.039 z m -3.266,-0.854 c -0.07,-0.024 -0.185,-0.024 -0.255,0 -0.07,0.024 -0.013,0.043 0.128,0.043 0.14,0 0.198,-0.019 0.128,-0.043 z m -2.219,-0.333 c -1.01,-0.158 -2.016,-0.318 -2.236,-0.355 -0.332,-0.056 -0.422,-0.118 -0.535,-0.366 l -0.135,-0.299 0.066,0.299 c 0.036,0.164 0.066,0.341 0.067,0.392 0.001,0.054 0.825,0.2 1.999,0.353 2.654,0.346 3.059,0.334 0.774,-0.024 z m 10.6089999,-1.314 c -2.119,-0.381 -4.024,-1.6949999 -4.639,-3.1979999 -0.2949999,-0.722 -0.2809999,-1.664 0.034,-2.228 0.285,-0.51 1.021,-1.1 1.68,-1.347 1.097,-0.411 3.018,-0.247 4.418,0.378 1.329,0.593 2.507,1.636 2.945,2.606 0.562,1.245 0.094,2.6339999 -1.11,3.2969999 -0.798,0.439 -2.349,0.668 -3.329,0.492 z m -1.106,-0.996 c -0.384,-0.165 -0.724,-0.279 -0.754,-0.254 -0.06,0.05 1.185,0.565 1.351,0.558 0.056,-0.002 -0.213,-0.139 -0.597,-0.304 z m -1.087,-0.8819999 c -0.309,-0.229 -0.779,-0.621 -1.045,-0.872 -0.266,-0.251 -0.484,-0.417 -0.485,-0.37 -0.003,0.216 1.77,1.6709999 2.023,1.6609999 0.037,-0.002 -0.185,-0.19 -0.494,-0.4189999 z"
     id="path11"
     style="fill:#012970;fill-opacity:1" />
</svg>
